<?xml version="1.0" standalone="no"?>
<!DOCTYPE svg PUBLIC "-//W3C//DTD SVG 20010904//EN"
 "http://www.w3.org/TR/2001/REC-SVG-20010904/DTD/svg10.dtd">
<svg version="1.0" xmlns="http://www.w3.org/2000/svg"
 width="512.000000pt" height="512.000000pt" viewBox="0 0 512.000000 512.000000"
 preserveAspectRatio="xMidYMid meet">
<metadata>
Created by potrace 1.14, written by Peter Selinger 2001-2017
</metadata>
<g transform="translate(0.000000,512.000000) scale(0.100000,-0.100000)"
fill="#000000" stroke="none">
<path d="M0 2560 l0 -2560 2560 0 2560 0 0 1070 c0 1048 0 1070 -19 1070 -11
0 -21 -6 -23 -12 -8 -24 -58 8 -58 37 0 14 -7 28 -15 31 -8 3 -17 26 -21 50
-4 28 -11 44 -20 44 -8 0 -14 10 -14 23 0 13 -9 34 -20 47 -11 13 -20 29 -20
37 0 7 -4 13 -8 13 -5 0 -19 10 -31 21 l-23 22 -142 -17 c-126 -15 -143 -19
-164 -41 -13 -14 -20 -30 -16 -36 4 -6 1 -15 -6 -19 -8 -5 -13 -32 -13 -74 0
-36 -4 -66 -9 -66 -4 0 -5 -7 -2 -15 8 -20 -5 -38 -19 -27 -7 5 -113 10 -236
11 -228 2 -268 9 -257 41 40 119 41 120 64 120 35 0 53 -23 47 -62 l-5 -33 11
30 c6 17 13 37 16 45 4 8 5 18 5 23 -1 4 3 7 8 7 6 0 10 -15 11 -32 1 -30 2
-29 10 11 5 24 6 48 3 52 -3 5 9 9 25 9 17 0 31 5 31 10 0 6 9 10 19 10 11 0
23 5 26 10 3 6 16 10 28 10 18 0 19 -2 7 -10 -13 -8 -13 -12 3 -27 17 -17 19
-17 28 0 6 9 21 29 35 44 25 27 32 67 13 79 -8 5 -6 10 5 16 24 14 19 28 -14
40 -28 9 -29 12 -14 23 20 14 10 37 -14 34 -32 -3 -42 1 -42 16 0 9 -8 19 -17
22 -25 10 -49 41 -69 91 -10 23 -24 42 -30 42 -7 0 -14 5 -16 11 -2 7 -17 7
-46 1 -34 -8 -42 -7 -42 4 0 8 -7 14 -15 14 -13 0 -14 4 -5 20 8 16 7 26 -7
45 -17 23 -41 36 -28 15 4 -6 -10 -10 -34 -10 -52 0 -71 8 -71 30 0 11 -4 21
-9 24 -5 4 -7 -3 -4 -14 3 -10 -4 -39 -16 -63 -20 -40 -23 -43 -56 -39 -26 3
-35 9 -35 23 0 10 5 21 10 24 7 4 4 17 -7 36 -14 24 -24 29 -54 29 -23 0 -39
-5 -42 -15 -8 -19 -97 -16 -97 3 0 7 4 10 10 7 5 -3 21 12 35 35 14 22 30 40
35 40 6 0 10 7 10 15 0 17 -30 35 -62 36 -18 1 -19 2 -5 6 18 5 18 6 1 24 -9
10 -23 19 -31 19 -8 0 -13 13 -13 38 0 21 -5 43 -12 50 -18 18 -372 17 -386
-1 -6 -7 -14 -57 -18 -110 -4 -54 -11 -100 -15 -103 -5 -3 -9 -14 -9 -25 0
-27 -28 -24 -52 6 -11 14 -29 25 -40 25 -16 0 -19 -5 -14 -24 5 -20 2 -25 -16
-28 -13 -2 -27 -13 -33 -25 -14 -33 -36 -28 -67 16 l-26 39 24 23 c13 12 24
26 24 31 0 11 -38 10 -45 -2 -10 -16 -68 -11 -91 8 -18 15 -22 33 -27 129 -5
83 -3 113 6 116 9 4 9 6 0 6 -6 1 -15 -3 -18 -9 -3 -5 -13 -10 -21 -10 -8 0
-12 5 -9 10 10 16 -45 12 -61 -4 -8 -8 -14 -24 -14 -35 0 -20 -5 -21 -142 -22
-81 0 -134 -4 -123 -8 11 -5 26 -6 33 -3 21 7 107 -9 92 -18 -20 -12 -3 -28
25 -22 14 2 25 0 25 -6 0 -5 12 -9 26 -9 15 0 30 -7 35 -14 7 -11 9 -10 9 4 0
9 -5 17 -11 17 -6 0 -8 7 -5 16 5 13 2 15 -14 11 -11 -3 -20 -2 -20 2 0 3 33
7 74 8 l73 1 7 -82 c3 -44 6 -159 6 -253 l0 -173 35 0 35 0 0 70 0 70 58 0
c31 1 86 2 122 4 36 2 77 1 93 -1 26 -5 27 -7 27 -74 l0 -69 34 0 34 0 7 93
c5 50 10 86 12 80 3 -7 12 -13 21 -13 12 0 11 5 -7 24 -20 22 -23 37 -27 133
-2 59 -1 127 2 150 l6 41 120 1 c100 1 124 -1 139 -15 11 -10 22 -14 26 -10 4
4 1 11 -7 17 -11 7 -6 9 19 7 33 -3 35 -5 47 -58 9 -37 13 -141 14 -318 l0
-262 -41 -17 c-34 -13 -40 -20 -36 -39 3 -16 -2 -25 -20 -33 -12 -6 -23 -18
-23 -26 0 -9 -5 -13 -11 -10 -6 4 -9 -4 -7 -22 2 -21 -2 -30 -19 -38 -13 -5
-23 -13 -23 -18 0 -4 -4 -5 -10 -2 -5 3 -10 2 -10 -3 0 -6 7 -12 15 -16 10 -3
15 -19 15 -44 0 -27 7 -47 24 -65 13 -14 22 -28 19 -31 -3 -2 2 -15 11 -28 9
-12 16 -17 16 -11 0 7 -5 15 -10 18 -8 5 -7 11 1 21 10 13 15 12 31 -6 21 -23
39 -25 56 -8 18 18 25 3 18 -35 -4 -21 -13 -37 -24 -39 -14 -4 -17 -14 -15
-46 l2 -41 -125 0 c-68 0 -124 3 -124 7 0 4 4 14 10 22 7 12 12 12 34 1 26
-14 56 -9 56 10 0 6 -7 9 -15 5 -9 -3 -24 3 -34 13 -12 12 -23 16 -34 10 -28
-16 -63 10 -36 26 6 4 8 13 6 19 -3 7 4 18 15 25 30 18 14 25 -25 10 -38 -13
-41 -27 -18 -82 6 -16 11 -33 11 -38 0 -5 5 -9 10 -9 6 0 10 -4 10 -10 0 -5
-16 -10 -36 -10 l-36 0 3 73 4 72 -45 1 c-108 2 -99 -5 -102 77 l-3 72 -75 0
-75 0 -3 -72 -3 -72 -72 -3 -72 -3 0 -72 0 -71 -182 -2 -183 -1 0 591 c0 387
-3 590 -10 590 -5 0 -10 -20 -10 -44 0 -58 -15 -97 -40 -103 -11 -3 -20 -10
-20 -15 0 -5 -5 -6 -12 -2 -8 5 -9 2 -5 -10 4 -10 7 -20 7 -22 0 -2 14 -4 30
-4 23 0 30 -4 30 -20 0 -29 -27 -36 -60 -16 -35 20 -54 2 -23 -23 11 -9 23
-24 26 -34 4 -9 18 -22 33 -27 24 -9 26 -14 20 -48 -3 -20 -6 -56 -6 -80 0
-26 -4 -41 -10 -37 -5 3 -10 -1 -10 -9 0 -9 6 -15 12 -13 10 1 13 -50 13 -234
l0 -235 -24 12 c-27 14 -51 8 -51 -12 0 -20 -18 -17 -32 6 -7 11 -23 20 -35
20 -22 0 -23 3 -23 85 0 54 -6 99 -16 125 -15 37 -15 42 1 67 16 24 17 54 13
344 -3 240 -8 322 -17 333 -12 14 -67 16 -457 16 l-444 0 -9 -22 c-6 -18 -25
-524 -21 -563 1 -5 4 -142 7 -302 l5 -293 -23 0 c-12 0 -31 -7 -41 -17 -17
-15 -18 -15 -18 13 0 47 11 72 33 79 22 7 22 8 -1 12 -18 3 -23 10 -19 24 4
14 0 19 -15 19 -15 0 -19 5 -15 20 4 15 0 20 -15 20 -15 0 -19 5 -15 20 4 15
0 20 -14 20 -12 0 -19 7 -19 19 0 26 -47 41 -125 41 -87 0 -122 -9 -128 -31
-3 -11 -14 -19 -26 -19 -14 0 -23 -8 -27 -25 -4 -18 -13 -25 -29 -25 -17 0
-25 -7 -27 -23 -2 -14 -11 -23 -25 -25 -15 -2 -25 -13 -29 -28 -4 -15 -13 -24
-26 -24 -15 0 -19 5 -15 20 4 16 0 20 -19 20 -20 0 -24 5 -24 30 0 26 -4 30
-26 30 -23 0 -26 3 -22 25 4 21 1 25 -18 25 -12 0 -25 4 -28 8 -6 11 40 242
54 264 5 10 10 30 10 45 0 34 15 116 74 418 25 127 77 397 116 600 39 204 73
382 76 397 6 29 49 64 59 48 7 -11 45 -13 69 -4 9 3 13 11 9 17 -3 6 -1 7 6 3
6 -4 9 -11 6 -16 -3 -5 139 -8 332 -7 l338 2 3 28 c3 26 1 27 -38 27 -46 0
-54 11 -42 55 8 27 13 30 58 35 85 9 86 8 82 -73 l-3 -72 31 -3 c35 -3 44 12
44 76 0 41 16 72 35 72 10 0 15 10 15 30 l0 30 -68 0 c-40 0 -73 -5 -80 -12
-9 -9 -12 -9 -12 0 0 8 -24 12 -80 12 -57 0 -80 -4 -80 -12 0 -10 -2 -10 -8
-1 -6 9 -46 12 -139 12 -130 0 -131 -1 -136 -24 -3 -16 2 -29 15 -37 16 -11
17 -18 8 -50 -10 -36 -13 -38 -50 -38 -45 0 -46 2 -26 76 7 29 11 57 7 63 -5
7 -57 11 -146 11 -185 2 -193 3 -212 30 -17 24 -24 98 -10 107 4 2 15 -1 24
-9 15 -11 16 -11 8 7 -4 11 -11 45 -15 77 -4 31 -11 61 -14 67 -5 7 -1 8 11 4
17 -6 17 -5 2 13 -28 34 -34 50 -11 30 32 -28 27 -7 -10 45 l-32 44 29 -25 28
-25 -7 25 c-4 14 -10 35 -13 48 -3 13 -11 21 -18 19 -6 -3 -20 9 -30 26 -17
28 -17 30 -2 18 10 -8 20 -11 24 -7 3 3 1 6 -5 6 -7 0 -12 5 -12 11 0 5 4 8 9
5 5 -4 7 3 4 14 -5 19 -6 20 -20 3 -14 -17 -14 -17 -9 0 8 23 -3 69 -15 62 -4
-3 -6 3 -4 14 5 28 -6 66 -15 51 -4 -7 -13 10 -20 40 -9 36 -15 48 -21 39 -7
-11 -9 -11 -9 -1 0 7 -4 10 -10 7 -5 -3 -10 0 -10 7 0 9 -3 9 -10 -2 -9 -13
-10 -13 -10 0 0 13 -1 13 -10 0 -7 -10 -8 -4 -4 20 5 28 0 43 -25 78 l-31 42
-275 0 -275 0 0 -2560z m1080 1570 c-12 -40 -20 -51 -32 -44 -11 7 -2 52 14
71 17 21 27 5 18 -27z m410 24 c0 -12 -3 -14 -12 -6 -7 6 -26 12 -43 15 -24 3
-22 4 13 6 33 1 42 -3 42 -15z m-589 -61 c-12 -20 -14 -14 -5 12 4 9 9 14 11
11 3 -2 0 -13 -6 -23z m579 -1 c0 -13 -12 -22 -22 -16 -10 6 -1 24 13 24 5 0
9 -4 9 -8z m2195 -1072 c-3 -5 -11 -10 -16 -10 -6 0 -7 5 -4 10 3 6 11 10 16
10 6 0 7 -4 4 -10z m-595 -123 c12 -3 18 -13 17 -26 -1 -18 -8 -21 -49 -21
-53 0 -77 24 -43 42 9 6 25 18 34 27 15 15 16 15 19 0 2 -9 12 -19 22 -22z
m70 -57 c0 -5 -6 -10 -14 -10 -8 0 -18 5 -21 10 -3 6 3 10 14 10 12 0 21 -4
21 -10z m-1401 -39 c14 -25 5 -31 -41 -31 -30 0 -38 4 -38 18 0 25 9 32 41 32
17 0 32 -7 38 -19z m1875 -277 c10 -4 16 -18 16 -41 0 -29 3 -34 18 -31 15 4
17 -3 17 -53 0 -31 -3 -61 -7 -65 -13 -13 -9 -33 12 -56 61 -67 64 -69 76 -53
7 9 18 13 28 9 10 -4 18 0 22 10 3 9 16 15 29 14 19 -2 22 -8 22 -38 0 -20 3
-46 7 -58 6 -18 3 -22 -13 -22 -12 0 -21 -4 -21 -10 0 -5 -9 -10 -20 -10 -11
0 -20 -4 -20 -10 0 -5 -7 -10 -15 -10 -8 0 -15 -4 -15 -9 0 -5 -13 -11 -30
-14 -18 -4 -30 -13 -30 -22 0 -9 -4 -13 -10 -10 -5 3 -10 22 -10 41 0 27 -4
34 -20 34 -14 0 -20 7 -20 24 0 13 -7 26 -15 30 -8 3 -15 12 -15 21 0 8 -4 15
-10 15 -6 0 -8 38 -4 103 3 56 6 128 6 160 0 31 2 57 3 57 2 0 10 -3 19 -6z
m-154 -163 c0 -27 -15 -34 -31 -14 -12 15 -12 16 3 10 12 -4 15 -2 11 9 -3 7
0 14 6 14 6 0 11 -9 11 -19z m-1732 -3 c5 -7 12 -39 14 -70 4 -51 2 -58 -14
-58 -10 0 -18 -4 -18 -10 0 -5 -6 -10 -14 -10 -8 0 -17 -4 -20 -8 -3 -5 4 -8
16 -8 12 1 23 -5 25 -11 3 -8 -4 -13 -15 -13 -17 0 -21 -9 -27 -50 -4 -27 -11
-50 -17 -50 -7 0 -9 47 -6 136 3 120 6 138 23 150 23 17 40 18 53 2z m1819
-84 c-2 -2 -12 -2 -21 2 -15 6 -15 7 1 20 15 11 19 10 21 -2 2 -9 2 -18 -1
-20z m-595 -126 c-9 -9 -15 -9 -24 0 -10 10 -10 15 2 22 20 12 38 -6 22 -22z
m-662 -28 c0 -5 -2 -10 -4 -10 -3 0 -8 5 -11 10 -3 6 -1 10 4 10 6 0 11 -4 11
-10z m-555 -10 c4 -6 -5 -10 -19 -10 -14 0 -26 5 -26 10 0 6 9 10 19 10 11 0
23 -4 26 -10z m2 -64 c-2 -6 -19 -12 -38 -14 -33 -4 -33 -3 -16 16 19 21 61
19 54 -2z m-1102 -18 c-9 -43 -13 -48 -32 -48 -11 0 -14 6 -9 23 3 12 6 30 6
40 0 11 8 17 21 17 18 0 20 -4 14 -32z m1682 16 c-3 -3 -12 -4 -19 -1 -8 3 -5
6 6 6 11 1 17 -2 13 -5z m616 -8 c8 -20 -3 -88 -17 -105 -9 -11 -12 -9 -16 10
-5 20 -12 24 -40 24 -32 0 -35 -3 -35 -27 1 -30 -12 -37 -21 -13 -8 21 -51 19
-57 -2 -4 -15 -5 -15 -6 2 0 11 6 29 14 39 8 11 15 32 15 47 0 28 1 28 68 32
37 2 72 4 78 5 7 1 14 -4 17 -12z m-2320 -96 c-8 -31 -23 -34 -23 -6 0 16 6
26 14 26 9 0 12 -7 9 -20z m572 -9 c-3 -6 -16 -11 -28 -11 -21 1 -21 1 3 15
27 14 36 13 25 -4z m392 -13 c-3 -8 -6 -5 -6 6 -1 11 2 17 5 13 3 -3 4 -12 1
-19z m410 0 c-3 -8 -6 -5 -6 6 -1 11 2 17 5 13 3 -3 4 -12 1 -19z m404 0 c1
-17 2 -19 6 -5 2 9 13 17 23 17 23 0 35 -16 18 -23 -25 -9 0 -17 55 -18 44 -1
57 -5 57 -17 0 -12 -11 -14 -72 -8 -40 4 -75 11 -79 17 -4 8 -8 7 -11 -2 -7
-21 -418 -21 -418 0 0 4 69 8 154 8 149 1 156 2 193 27 47 32 73 34 74 4z
m239 12 c0 -13 -38 -32 -53 -26 -7 2 -5 5 4 5 9 1 19 8 23 16 6 17 26 21 26 5z
m36 -45 c-11 -8 -27 -14 -35 -14 -13 1 -12 2 2 6 9 2 17 9 17 14 0 5 8 9 18 9
15 -1 15 -2 -2 -15z m604 0 c0 -12 -15 -15 -65 -16 -169 -4 -245 -1 -245 11 0
5 61 11 148 13 81 1 150 4 155 5 4 1 7 -5 7 -13z m190 -6 c0 -5 -40 -9 -90 -9
-79 0 -101 5 -86 21 8 8 176 -3 176 -12z m1450 0 c0 -5 -42 -9 -95 -9 -120 0
-126 18 -7 22 93 3 102 2 102 -13z m-4160 -10 c0 -5 -40 -9 -90 -9 -49 0 -90
4 -90 9 0 5 4 11 10 13 21 7 170 -4 170 -13z m305 0 c-8 -12 -272 -12 -280 0
-7 12 77 17 198 13 50 -2 85 -7 82 -13z m305 12 c0 -5 -10 -11 -22 -15 -37 -9
-256 -7 -263 3 -7 13 36 17 173 19 61 1 112 -2 112 -7z m290 -8 c6 -10 -202
-16 -247 -8 -18 3 -33 10 -33 16 0 11 273 4 280 -8z m300 5 c0 -8 -192 -21
-239 -16 -19 1 -36 8 -38 15 -4 10 29 12 136 10 78 -1 141 -5 141 -9z m1000 0
c0 -7 -209 -16 -224 -9 -4 2 -2 7 5 12 16 10 219 7 219 -3z m730 2 c10 -7 -21
-10 -97 -10 -69 0 -113 4 -113 10 0 13 190 13 210 0z m55 0 c3 -5 -1 -10 -10
-10 -9 0 -13 5 -10 10 3 6 8 10 10 10 2 0 7 -4 10 -10z m1355 0 c0 -6 -35 -10
-85 -10 -50 0 -85 4 -85 10 0 6 35 10 85 10 50 0 85 -4 85 -10z m-2380 -10 c0
-5 -5 -10 -11 -10 -5 0 -7 5 -4 10 3 6 8 10 11 10 2 0 4 -4 4 -10z m1083 3
c-7 -2 -19 -2 -25 0 -7 3 -2 5 12 5 14 0 19 -2 13 -5z m80 0 c-7 -2 -19 -2
-25 0 -7 3 -2 5 12 5 14 0 19 -2 13 -5z m555 0 c-10 -2 -28 -2 -40 0 -13 2 -5
4 17 4 22 1 32 -1 23 -4z m200 0 c-32 -2 -86 -2 -120 0 -35 2 -9 3 57 3 66 0
94 -1 63 -3z m-3011 -269 c-3 -3 -12 -4 -19 -1 -8 3 -5 6 6 6 11 1 17 -2 13
-5z m-355 -156 c-6 -6 -15 -8 -19 -4 -4 4 -1 11 7 16 19 12 27 3 12 -12z m38
12 c0 -5 -2 -10 -4 -10 -3 0 -8 5 -11 10 -3 6 -1 10 4 10 6 0 11 -4 11 -10z
m45 -10 c3 -5 2 -10 -4 -10 -5 0 -13 5 -16 10 -3 6 -2 10 4 10 5 0 13 -4 16
-10z m-230 -51 c-4 -5 -13 -9 -22 -9 -13 0 -13 3 -3 15 13 15 35 11 25 -6z
m210 1 c-3 -5 -12 -10 -18 -10 -7 0 -6 4 3 10 19 12 23 12 15 0z m-36 -14 c-2
-2 -22 -7 -44 -10 l-40 -6 40 13 c36 12 55 13 44 3z m-89 -6 c0 -5 -6 -10 -14
-10 -8 0 -18 5 -21 10 -3 6 3 10 14 10 12 0 21 -4 21 -10z m-92 -66 l23 -7
-27 -13 c-44 -23 -71 -15 -42 14 14 14 15 14 46 6z"/>
<path d="M2340 4845 c0 -20 -5 -25 -25 -25 -20 0 -25 -5 -25 -25 0 -20 -5 -25
-25 -25 -20 0 -25 -5 -25 -25 0 -20 -5 -25 -25 -25 -20 0 -25 -5 -25 -25 0
-20 -5 -25 -24 -25 -19 0 -25 -6 -28 -27 -2 -20 -9 -29 -25 -31 -22 -3 -23 -8
-23 -78 0 -72 1 -74 25 -74 20 0 25 -5 25 -25 0 -20 5 -25 25 -25 20 0 25 -5
25 -25 0 -23 3 -25 50 -25 47 0 50 -2 50 -25 l0 -25 100 0 100 0 0 25 c0 23 3
25 50 25 47 0 50 2 50 25 0 20 5 25 25 25 20 0 25 5 25 25 0 20 5 25 25 25 26
0 26 0 23 78 -3 71 -5 77 -25 80 -14 2 -23 11 -25 25 -2 14 -11 23 -25 25 -17
3 -23 10 -23 28 0 19 -5 24 -25 24 -20 0 -25 5 -25 25 0 20 -5 25 -25 25 -20
0 -25 5 -25 25 0 20 -5 25 -25 25 -20 0 -25 5 -25 25 0 23 -3 25 -50 25 -47 0
-50 -2 -50 -25z"/>
<path d="M1897 4163 c-4 -38 -7 -85 -7 -106 0 -37 1 -38 33 -35 28 3 33 7 38
38 l6 35 4 -35 4 -35 185 -2 c218 -3 220 -2 220 85 0 31 3 53 6 49 3 -3 6 -35
6 -71 l-1 -66 80 0 79 0 0 65 c0 51 -4 67 -16 72 -24 9 6 24 34 16 24 -6 30
-23 34 -98 3 -48 4 -50 36 -53 l32 -3 0 70 c0 60 3 72 20 81 23 12 28 -2 32
-90 l3 -55 125 -2 c107 -1 127 1 138 15 12 16 14 16 23 0 8 -15 29 -17 164
-17 135 0 156 2 164 17 9 16 12 16 43 0 29 -15 74 -17 395 -17 425 0 400 -7
362 107 -31 96 -39 102 -121 102 -81 0 -87 -8 -64 -77 22 -64 21 -71 -13 -68
-42 4 -46 8 -65 79 l-18 65 -247 -2 -246 -2 -3 -27 c-3 -22 -9 -28 -27 -28
-18 0 -24 6 -27 28 l-3 27 -149 2 c-130 1 -152 -1 -163 -15 -12 -16 -14 -16
-23 0 -8 14 -29 17 -126 17 -74 1 -122 -3 -130 -10 -10 -8 -14 -8 -14 -1 0 7
-51 11 -155 11 -153 0 -155 0 -155 -22 l0 -21 -16 22 c-13 19 -24 22 -78 22
-35 0 -67 -5 -74 -12 -9 -9 -12 -9 -12 0 0 8 -22 12 -71 12 -48 0 -68 -3 -63
-11 5 -8 1 -8 -14 0 -11 6 -52 11 -90 11 l-69 0 -6 -67z m973 40 c0 -10 -4
-14 -8 -8 -4 6 -11 13 -16 18 -5 4 -2 7 7 7 10 0 17 -8 17 -17z m727 -15 c-1
-18 -6 -32 -12 -30 -15 3 -14 62 1 62 8 0 12 -12 11 -32z m-1557 -19 c0 -11
-4 -18 -10 -14 -5 3 -7 12 -3 20 7 21 13 19 13 -6z m179 -21 c-1 -24 -3 -27
-6 -10 -3 16 -12 22 -31 23 -27 1 -27 1 3 9 17 4 31 8 33 9 1 0 1 -14 1 -31z
m91 -23 c0 -19 -4 -35 -10 -35 -5 0 -10 16 -10 35 0 19 5 35 10 35 6 0 10 -16
10 -35z m510 16 c0 -11 3 -26 6 -35 4 -12 0 -16 -15 -16 -17 0 -21 6 -21 35 0
24 5 35 15 35 8 0 15 -9 15 -19z m733 12 c2 -5 7 -20 11 -35 5 -21 3 -28 -8
-28 -13 0 -26 28 -26 58 0 13 16 17 23 5z m-1333 -70 c-1 -24 -2 -26 -11 -10
-5 9 -7 22 -4 27 10 17 15 11 15 -17z m1797 -5 c-3 -8 -6 -5 -6 6 -1 11 2 17
5 13 3 -3 4 -12 1 -19z m-1877 -20 c0 -10 -3 -18 -8 -18 -4 0 -12 8 -18 18
-10 15 -8 18 7 18 12 0 19 -7 19 -18z m391 -9 c9 -17 7 -18 -16 -7 -14 6 -25
17 -25 24 0 18 28 6 41 -17z m1174 -7 c-8 -9 -25 20 -18 31 3 5 10 2 15 -7 6
-10 7 -20 3 -24z m393 11 c5 -18 -10 -16 -34 2 -18 15 -18 15 5 13 14 -2 26
-9 29 -15z"/>
<path d="M1896 3981 c-3 -5 -9 -31 -13 -57 -5 -38 -3 -46 8 -42 8 2 15 15 17
27 4 27 27 23 27 -5 0 -10 7 -19 15 -20 8 0 25 -4 38 -8 14 -5 28 -3 37 4 9 7
20 8 32 2 20 -10 104 -9 122 2 7 4 11 16 9 26 -4 28 16 25 22 -2 4 -14 13 -23
25 -23 11 0 26 -4 32 -8 7 -4 21 -3 32 3 11 5 27 7 35 4 12 -5 16 0 16 20 0
33 16 34 24 0 6 -22 11 -25 44 -22 30 2 38 7 40 26 4 28 20 29 24 2 4 -27 22
-27 26 0 5 34 -17 53 -55 47 -28 -5 -33 -3 -33 14 0 11 -5 17 -10 14 -6 -4 -8
-11 -5 -16 10 -16 -5 -31 -19 -20 -7 6 -43 9 -79 8 -60 -3 -67 -1 -73 17 -6
19 -7 19 -20 2 -8 -12 -28 -19 -53 -20 -32 -2 -41 1 -45 18 -5 16 -8 18 -14 8
-5 -7 -21 -20 -36 -27 -22 -12 -31 -12 -47 -2 -14 9 -24 9 -36 1 -14 -9 -20
-7 -28 10 -11 22 -49 34 -59 17z m188 -72 c-3 -5 -10 -7 -15 -3 -5 3 -7 10 -3
15 3 5 10 7 15 3 5 -3 7 -10 3 -15z m216 13 c0 -13 -12 -22 -22 -16 -10 6 -1
24 13 24 5 0 9 -4 9 -8z"/>
<path d="M2575 3946 c-4 -25 -4 -49 0 -55 12 -20 25 -11 25 17 l0 27 13 -24
c20 -41 35 -36 31 10 -3 43 -22 75 -31 52 -3 -7 -9 -13 -14 -13 -6 0 -8 4 -4
9 3 5 1 12 -4 16 -5 3 -13 -15 -16 -39z"/>
<path d="M2874 3975 c-4 -17 -13 -20 -54 -19 -45 2 -49 0 -52 -22 -4 -34 -22
-35 -26 -1 -5 39 -22 33 -22 -8 0 -54 56 -69 128 -33 27 14 32 14 32 2 0 -8 5
-14 10 -14 13 0 13 80 0 100 -8 13 -11 12 -16 -5z"/>
<path d="M3242 3099 c-44 -43 -42 -68 4 -34 10 8 27 15 36 15 13 0 17 7 15 22
-5 33 -19 32 -55 -3z"/>
<path d="M3883 3075 l2 -30 93 -3 c80 -2 98 0 125 17 l32 21 -100 0 c-74 -1
-105 -5 -120 -16 -19 -14 -20 -13 -27 13 l-7 28 2 -30z"/>
<path d="M2506 3042 c-3 -6 -1 -14 5 -17 14 -9 20 -2 10 14 -6 8 -11 9 -15 3z"/>
<path d="M3892 2990 c0 -19 2 -27 5 -17 2 9 2 25 0 35 -3 9 -5 1 -5 -18z"/>
<path d="M3290 3001 c18 -7 20 -9 7 -10 -10 -1 -15 -6 -12 -12 4 -5 12 -8 18
-6 7 2 20 -2 30 -11 14 -12 17 -13 17 -1 0 25 -16 39 -50 44 -29 4 -31 3 -10
-4z"/>
<path d="M2520 2990 c0 -5 5 -10 11 -10 5 0 7 5 4 10 -3 6 -8 10 -11 10 -2 0
-4 -4 -4 -10z"/>
<path d="M3940 2910 c-11 -7 -6 -10 20 -10 26 0 31 3 20 10 -8 5 -17 10 -20
10 -3 0 -12 -5 -20 -10z"/>
<path d="M3307 2543 c-4 -6 -4 -24 -1 -41 5 -23 10 -28 25 -25 21 6 25 18 8
28 -6 4 -14 16 -18 28 -5 12 -10 16 -14 10z"/>
<path d="M3275 2460 c-3 -5 -2 -10 4 -10 5 0 13 5 16 10 3 6 2 10 -4 10 -5 0
-13 -4 -16 -10z"/>
<path d="M3315 2330 c-3 -5 -1 -10 4 -10 6 0 11 5 11 10 0 6 -2 10 -4 10 -3 0
-8 -4 -11 -10z"/>
<path d="M3270 2310 c0 -5 4 -10 9 -10 6 0 13 5 16 10 3 6 -1 10 -9 10 -9 0
-16 -4 -16 -10z"/>
</g>
</svg>
